<svg width="125" height="78" viewBox="0 0 125 78" fill="none" xmlns="http://www.w3.org/2000/svg">
<path d="M58.752 49.984C60.992 49.984 62.7413 50.5387 64 51.648C65.2587 52.7573 65.888 54.336 65.888 56.384V68H61.664L60.48 65.664H60.352C59.8613 66.2827 59.3493 66.7947 58.816 67.2C58.304 67.584 57.7067 67.8613 57.024 68.032C56.3413 68.224 55.5093 68.32 54.528 68.32C53.504 68.32 52.5867 68.1173 51.776 67.712C50.9653 67.2853 50.3253 66.656 49.856 65.824C49.3867 64.9707 49.152 63.8933 49.152 62.592C49.152 60.6933 49.8027 59.2853 51.104 58.368C52.4267 57.4507 54.336 56.9387 56.832 56.832L59.776 56.736V56.48C59.776 55.6907 59.584 55.136 59.2 54.816C58.816 54.4747 58.2933 54.304 57.632 54.304C56.928 54.304 56.1493 54.432 55.296 54.688C54.4427 54.9227 53.5787 55.232 52.704 55.616L50.944 51.584C51.968 51.0507 53.12 50.656 54.4 50.4C55.7013 50.1227 57.152 49.984 58.752 49.984ZM58.4 60.16C57.2907 60.2027 56.5013 60.4053 56.032 60.768C55.584 61.1093 55.36 61.6 55.36 62.24C55.36 62.8373 55.52 63.2853 55.84 63.584C56.16 63.8613 56.5867 64 57.12 64C57.8667 64 58.496 63.7653 59.008 63.296C59.5413 62.8267 59.808 62.2187 59.808 61.472V60.096L58.4 60.16ZM85.1215 62.56C85.1215 63.6693 84.8655 64.6613 84.3535 65.536C83.8628 66.4107 83.0628 67.0933 81.9535 67.584C80.8655 68.0747 79.4255 68.32 77.6335 68.32C76.3748 68.32 75.2442 68.2453 74.2415 68.096C73.2602 67.968 72.2575 67.712 71.2335 67.328V62.432C72.3642 62.944 73.5055 63.3173 74.6575 63.552C75.8095 63.7653 76.7162 63.872 77.3775 63.872C78.0602 63.872 78.5615 63.7973 78.8815 63.648C79.2015 63.4987 79.3615 63.2747 79.3615 62.976C79.3615 62.72 79.2548 62.496 79.0415 62.304C78.8282 62.112 78.4442 61.8987 77.8895 61.664C77.3562 61.4293 76.5882 61.1093 75.5855 60.704C74.6042 60.2987 73.7828 59.8613 73.1215 59.392C72.4815 58.9013 72.0015 58.3253 71.6815 57.664C71.3615 56.9813 71.2015 56.16 71.2015 55.2C71.2015 53.472 71.8628 52.1707 73.1855 51.296C74.5295 50.4213 76.3002 49.984 78.4975 49.984C79.6708 49.984 80.7695 50.112 81.7935 50.368C82.8175 50.624 83.8842 50.9973 84.9935 51.488L83.3295 55.424C82.7535 55.1467 82.1562 54.912 81.5375 54.72C80.9402 54.528 80.3748 54.3787 79.8415 54.272C79.3295 54.1653 78.8922 54.112 78.5295 54.112C78.0602 54.112 77.6868 54.176 77.4095 54.304C77.1535 54.432 77.0255 54.6133 77.0255 54.848C77.0255 55.0613 77.1108 55.2533 77.2815 55.424C77.4735 55.5947 77.8255 55.7867 78.3375 56C78.8495 56.2133 79.5962 56.5227 80.5775 56.928C81.6015 57.3333 82.4442 57.7813 83.1055 58.272C83.7882 58.7413 84.2895 59.3173 84.6095 60C84.9508 60.6613 85.1215 61.5147 85.1215 62.56ZM96.5648 53.248C96.5648 53.9733 96.5328 54.7733 96.4688 55.648C96.4048 56.5227 96.3194 57.3227 96.2128 58.048H96.3408C96.5114 57.792 96.7034 57.504 96.9168 57.184C97.1301 56.8427 97.3541 56.5013 97.5888 56.16C97.8234 55.8187 98.0368 55.5307 98.2288 55.296L102.197 50.304H109.013L102.869 57.824L109.397 68H102.421L98.5488 61.664L96.5648 63.168V68H90.4208V43.68H96.5648V53.248Z" fill="white"/>
<path d="M58.752 15.984C60.992 15.984 62.7413 16.5387 64 17.648C65.2587 18.7573 65.888 20.336 65.888 22.384V34H61.664L60.48 31.664H60.352C59.8613 32.2827 59.3493 32.7947 58.816 33.2C58.304 33.584 57.7067 33.8613 57.024 34.032C56.3413 34.224 55.5093 34.32 54.528 34.32C53.504 34.32 52.5867 34.1173 51.776 33.712C50.9653 33.2853 50.3253 32.656 49.856 31.824C49.3867 30.9707 49.152 29.8933 49.152 28.592C49.152 26.6933 49.8027 25.2853 51.104 24.368C52.4267 23.4507 54.336 22.9387 56.832 22.832L59.776 22.736V22.48C59.776 21.6907 59.584 21.136 59.2 20.816C58.816 20.4747 58.2933 20.304 57.632 20.304C56.928 20.304 56.1493 20.432 55.296 20.688C54.4427 20.9227 53.5787 21.232 52.704 21.616L50.944 17.584C51.968 17.0507 53.12 16.656 54.4 16.4C55.7013 16.1227 57.152 15.984 58.752 15.984ZM58.4 26.16C57.2907 26.2027 56.5013 26.4053 56.032 26.768C55.584 27.1093 55.36 27.6 55.36 28.24C55.36 28.8373 55.52 29.2853 55.84 29.584C56.16 29.8613 56.5867 30 57.12 30C57.8667 30 58.496 29.7653 59.008 29.296C59.5413 28.8267 59.808 28.2187 59.808 27.472V26.096L58.4 26.16ZM78.0815 15.184C78.0815 15.8027 78.0602 16.4 78.0175 16.976C77.9748 17.552 77.9215 18.0853 77.8575 18.576H78.0815C78.5295 17.8507 79.1268 17.2427 79.8735 16.752C80.6202 16.24 81.5908 15.984 82.7855 15.984C84.6202 15.984 86.1242 16.7627 87.2975 18.32C88.4708 19.8773 89.0575 22.1387 89.0575 25.104C89.0575 27.1093 88.7802 28.8053 88.2255 30.192C87.6922 31.5573 86.9348 32.592 85.9535 33.296C84.9935 33.9787 83.8735 34.32 82.5935 34.32C81.3562 34.32 80.4068 34.1067 79.7455 33.68C79.0842 33.232 78.5295 32.7627 78.0815 32.272H77.6975L76.7375 34H71.9695V9.68H78.0815V15.184ZM80.5455 20.784C79.9908 20.784 79.5215 20.9227 79.1375 21.2C78.7748 21.456 78.5082 21.8507 78.3375 22.384C78.1668 22.9173 78.0815 23.6107 78.0815 24.464V25.328C78.0815 26.6933 78.2628 27.7173 78.6255 28.4C79.0095 29.0613 79.6708 29.392 80.6095 29.392C81.3348 29.392 81.8895 29.0293 82.2735 28.304C82.6575 27.5573 82.8495 26.4693 82.8495 25.04C82.8495 23.632 82.6575 22.576 82.2735 21.872C81.9108 21.1467 81.3348 20.784 80.5455 20.784ZM100.564 34H94.452V9.68H100.564V34ZM114.684 15.984C116.412 15.984 117.894 16.2827 119.132 16.88C120.39 17.4773 121.35 18.3733 122.012 19.568C122.694 20.7627 123.036 22.2667 123.036 24.08V26.8H112.124C112.166 27.7173 112.508 28.4747 113.148 29.072C113.809 29.6693 114.758 29.968 115.996 29.968C117.105 29.968 118.118 29.8613 119.036 29.648C119.953 29.4347 120.902 29.0933 121.884 28.624V33.008C121.03 33.456 120.092 33.7867 119.068 34C118.065 34.2133 116.796 34.32 115.26 34.32C113.468 34.32 111.868 34.0107 110.46 33.392C109.073 32.752 107.974 31.76 107.164 30.416C106.353 29.072 105.948 27.3547 105.948 25.264C105.948 23.1307 106.31 21.3813 107.036 20.016C107.782 18.6507 108.806 17.6373 110.108 16.976C111.43 16.3147 112.956 15.984 114.684 15.984ZM114.908 20.144C114.182 20.144 113.574 20.368 113.084 20.816C112.614 21.264 112.337 21.9787 112.252 22.96H117.5C117.5 22.4267 117.393 21.9573 117.18 21.552C116.988 21.1253 116.7 20.784 116.316 20.528C115.932 20.272 115.462 20.144 114.908 20.144Z" fill="white"/>
<path d="M1 27.2917C13.6646 26.9859 40.6089 23.6953 47.0696 12.9792C55.1456 -0.415765 20.8228 10.5938 27.2468 27.2917C32.3861 40.65 33.6709 59.8924 33.6709 67.8438M20.8228 49.6779C25.0659 46.4754 31.6993 42.0419 38.443 38.6248M59 34.448C54.4745 31.9874 46.3822 34.6018 38.443 38.6248M38.443 38.6248C44.1941 46.2237 53.9709 64.1372 47.0696 75" stroke="#05DF72" stroke-width="7"/>
</svg>
